<?xml version="1.0" encoding="UTF-8"?>
<svg version="1.1" xmlns="http://www.w3.org/2000/svg" width="100" height="100">
<path d="M0 0 C3.23433315 1.37235031 4.6444735 2.75846077 6.6875 5.5625 C10.55170295 9.68261043 14.51886843 9.69714563 19.875 9.875 C21.39314625 9.89916776 22.91139568 9.91776945 24.4296875 9.9296875 C28 10 28 10 29 11 C29.0379338 12.92619404 29.0724026 14.85253803 29.08666992 16.77905273 C29.02354409 25.32095474 29.02354409 25.32095474 33.1875 32.4375 C36.73143998 35.17931365 40.44316275 37 45 37 C45.33 36.67 45.66 36.34 46 36 C47.66617115 35.95936168 49.33388095 35.957279 51 36 C51 38.64 51 41.28 51 44 C43 44 43 44 39.625 43.8125 C35.49572315 44.02608329 32.93805629 45.06194371 30 48 C29.7889782 50.83707088 29.62392187 53.65897646 29.5 56.5 C29.13513514 64.86486486 29.13513514 64.86486486 28 66 C26.1073352 66 24.21465031 65.99824075 22.32202148 65.98657227 C14.69286921 66.00063253 14.69286921 66.00063253 7.87109375 69.06640625 C5.71228563 71.28065728 3.78760153 73.47902348 2 76 C-1.23433315 74.62764969 -2.6444735 73.24153923 -4.6875 70.4375 C-8.55170295 66.31738957 -12.51886843 66.30285437 -17.875 66.125 C-19.39314625 66.10083224 -20.91139568 66.08223055 -22.4296875 66.0703125 C-26 66 -26 66 -27 65 C-27.203579 61.41851762 -27.34684076 57.84389296 -27.4296875 54.2578125 C-27.460625 53.505 -27.4915625 52.7521875 -27.5234375 51.9765625 C-27.54325684 51.28643066 -27.56307617 50.59629883 -27.58349609 49.88525391 C-28.12377566 47.43974465 -29.05425809 46.53745508 -31 45 C-33.60611077 44.27802838 -33.60611077 44.27802838 -36 44 C-36.38063221 41.6739143 -36.71269945 39.33944736 -37 37 C-36.505 36.505 -36.505 36.505 -36 36 C-36.66 35.67 -37.32 35.34 -38 35 C-38 34.34 -38 33.68 -38 33 C-38.66 33 -39.32 33 -40 33 C-40 35.97 -40 38.94 -40 42 C-39.34 42 -38.68 42 -38 42 C-38 42.66 -38 43.32 -38 44 C-40.31 44 -42.62 44 -45 44 C-45 43.34 -45 42.68 -45 42 C-44.34 42 -43.68 42 -43 42 C-43.33 39.03 -43.66 36.06 -44 33 C-45.32 33.66 -46.64 34.32 -48 35 C-48 33.35 -48 31.7 -48 30 C-42 30 -36 30 -30 30 C-26.98886075 26.98886075 -27.57294299 23.48427222 -27.4375 19.4375 C-27.11993243 11.11993243 -27.11993243 11.11993243 -26 10 C-24.1073352 10 -22.21465031 10.00175925 -20.32202148 10.01342773 C-12.69286921 9.99936747 -12.69286921 9.99936747 -5.87109375 6.93359375 C-3.71228563 4.71934272 -1.78760153 2.52097652 0 0 Z M-36 32 C-35 34 -35 34 -35 34 Z " fill="#F89B10" transform="translate(49,12)"/>
<path d="M0 0 C4.69116959 2.77451381 8.57644733 6.66892647 10.1171875 11.96875 C10.37109375 14.40234375 10.37109375 14.40234375 9.37109375 17.40234375 C8.38109375 17.40234375 7.39109375 17.40234375 6.37109375 17.40234375 C6.37109375 16.74234375 6.37109375 16.08234375 6.37109375 15.40234375 C5.05109375 15.40234375 3.73109375 15.40234375 2.37109375 15.40234375 C2.37109375 16.06234375 2.37109375 16.72234375 2.37109375 17.40234375 C-2.57890625 18.88734375 -2.57890625 18.88734375 -7.62890625 20.40234375 C-7.95890625 20.07234375 -8.28890625 19.74234375 -8.62890625 19.40234375 C-8.3416057 17.06289639 -8.00953846 14.72842945 -7.62890625 12.40234375 C-9.27890625 12.40234375 -10.92890625 12.40234375 -12.62890625 12.40234375 C-13.61890625 15.70234375 -14.60890625 19.00234375 -15.62890625 22.40234375 C-17.61988471 19.41587606 -18.57015551 16.80547113 -19.62890625 13.40234375 C-21.27890625 13.07234375 -22.92890625 12.74234375 -24.62890625 12.40234375 C-24.62890625 13.06234375 -24.62890625 13.72234375 -24.62890625 14.40234375 C-23.96890625 14.40234375 -23.30890625 14.40234375 -22.62890625 14.40234375 C-22.62890625 17.70234375 -22.62890625 21.00234375 -22.62890625 24.40234375 C-23.28890625 24.40234375 -23.94890625 24.40234375 -24.62890625 24.40234375 C-24.62890625 25.06234375 -24.62890625 25.72234375 -24.62890625 26.40234375 C-22.97890625 26.40234375 -21.32890625 26.40234375 -19.62890625 26.40234375 C-19.95890625 25.74234375 -20.28890625 25.08234375 -20.62890625 24.40234375 C-20.66913016 22.06935715 -20.67210872 19.73527709 -20.62890625 17.40234375 C-18.50382381 20.5899674 -18.12688995 22.66746598 -17.62890625 26.40234375 C-16.96890625 26.40234375 -16.30890625 26.40234375 -15.62890625 26.40234375 C-14.63890625 23.10234375 -13.64890625 19.80234375 -12.62890625 16.40234375 C-12.29890625 16.40234375 -11.96890625 16.40234375 -11.62890625 16.40234375 C-11.62890625 19.04234375 -11.62890625 21.68234375 -11.62890625 24.40234375 C-12.28890625 24.40234375 -12.94890625 24.40234375 -13.62890625 24.40234375 C-13.62890625 25.39234375 -13.62890625 26.38234375 -13.62890625 27.40234375 C-5.70890625 27.40234375 2.21109375 27.40234375 10.37109375 27.40234375 C6.84337891 34.45777343 3.91119214 39.44377378 -3.3203125 42.7109375 C-9.05762656 44.42921937 -14.62734079 43.979066 -20.31640625 42.33984375 C-25.72434903 39.17670741 -31.32251598 35.78080407 -33.12890625 29.46484375 C-33.29390625 28.45421875 -33.45890625 27.44359375 -33.62890625 26.40234375 C-32.30890625 26.07234375 -30.98890625 25.74234375 -29.62890625 25.40234375 C-29.95890625 23.42234375 -30.28890625 21.44234375 -30.62890625 19.40234375 C-31.94890625 19.07234375 -33.26890625 18.74234375 -34.62890625 18.40234375 C-34.12549717 11.69022262 -30.99543455 6.70659499 -26.25390625 2.08984375 C-17.34062606 -3.64012209 -9.63790794 -4.22504233 0 0 Z " fill="#FCE83B" transform="translate(61.62890625,29.59765625)"/>
<path d="M0 0 C3.23433315 1.37235031 4.6444735 2.75846077 6.6875 5.5625 C10.55170295 9.68261043 14.51886843 9.69714563 19.875 9.875 C21.39314625 9.89916776 22.91139568 9.91776945 24.4296875 9.9296875 C28 10 28 10 29 11 C29.0379338 12.92619404 29.0724026 14.85253803 29.08666992 16.77905273 C29.02354409 25.32095474 29.02354409 25.32095474 33.1875 32.4375 C36.73143998 35.17931365 40.44316275 37 45 37 C45.33 36.67 45.66 36.34 46 36 C47.66617115 35.95936168 49.33388095 35.957279 51 36 C51 38.64 51 41.28 51 44 C45.66666667 44 40.33333333 44 35 44 C34.34 41.69 33.68 39.38 33 37 C31.9275 36.95875 30.855 36.9175 29.75 36.875 C26 36 26 36 23.8125 33.375 C22.88538051 31.64863957 21.95891626 29.92187355 21.046875 28.1875 C17.66923107 21.96834609 13.79067462 18.78056448 7.1640625 16.546875 C-0.05873556 14.72161917 -5.37488638 15.99655579 -11.83984375 19.59375 C-17.8498966 23.5062618 -19.63715552 29.52731432 -22 36 C-20.68 36.33 -19.36 36.66 -18 37 C-17.67 38.98 -17.34 40.96 -17 43 C-19.875 43.625 -19.875 43.625 -23 44 C-23.66 43.34 -24.32 42.68 -25 42 C-24.625 39.375 -24.625 39.375 -24 37 C-26.31 36.34 -28.62 35.68 -31 35 C-30.27683594 33.54207031 -30.27683594 33.54207031 -29.5390625 32.0546875 C-27.69719294 27.75843476 -27.48667439 23.75151028 -27.375 19.125 C-27.10683391 11.10683391 -27.10683391 11.10683391 -26 10 C-24.1073352 10 -22.21465031 10.00175925 -20.32202148 10.01342773 C-12.69286921 9.99936747 -12.69286921 9.99936747 -5.87109375 6.93359375 C-3.71228563 4.71934272 -1.78760153 2.52097652 0 0 Z " fill="#FA9805" transform="translate(49,12)"/>
<path d="M0 0 C1.65 0 3.3 0 5 0 C6.32 2.64 7.64 5.28 9 8 C9.99 5.36 10.98 2.72 12 0 C13.65 0 15.3 0 17 0 C17 2.31 17 4.62 17 7 C17.9075 6.67 18.815 6.34 19.75 6 C23 5 23 5 27 5 C27 4.34 27 3.68 27 3 C28.32 3 29.64 3 31 3 C31 3.66 31 4.32 31 5 C31.99 5 32.98 5 34 5 C34 4.01 34 3.02 34 2 C37 3 37 3 38 5 C40.32156597 5.40729228 42.6568787 5.74438677 45 6 C47 11.75 47 11.75 47 14 C43.25151127 14.37148415 39.50113623 14.71886754 35.75 15.0625 C34.70585938 15.16626953 33.66171875 15.27003906 32.5859375 15.37695312 C25.25676606 16.03295921 18.30789214 15.84504675 11 15 C11 14.01 11 13.02 11 12 C11.66 12 12.32 12 13 12 C12.67 10.02 12.34 8.04 12 6 C11.01 8.64 10.02 11.28 9 14 C8.34 14 7.68 14 7 14 C6.34 12.02 5.68 10.04 5 8 C5 9.98 5 11.96 5 14 C3.35 14 1.7 14 0 14 C0 13.34 0 12.68 0 12 C0.66 12 1.32 12 2 12 C2 8.7 2 5.4 2 2 C1.34 2 0.68 2 0 2 C0 1.34 0 0.68 0 0 Z " fill="#EEDF5A" transform="translate(37,42)"/>
<path d="M0 0 C0.99 0.66 1.98 1.32 3 2 C4.92744369 2.3626117 4.92744369 2.3626117 7.01171875 2.4140625 C8.14770508 2.47207031 8.14770508 2.47207031 9.30664062 2.53125 C10.48516602 2.57765625 10.48516602 2.57765625 11.6875 2.625 C12.48478516 2.66367187 13.28207031 2.70234375 14.10351562 2.7421875 C16.06863475 2.83632494 18.0342854 2.91924632 20 3 C20.19635974 6.45789054 20.38058252 9.91632197 20.5625 13.375 C20.61857422 14.35984375 20.67464844 15.3446875 20.73242188 16.359375 C20.78076172 17.30039062 20.82910156 18.24140625 20.87890625 19.2109375 C20.9260376 20.08024902 20.97316895 20.94956055 21.02172852 21.84521484 C21 24 21 24 20 26 C19.34 26 18.68 26 18 26 C17.69707031 25.41992188 17.39414063 24.83984375 17.08203125 24.2421875 C12.78560873 16.23101196 9.29794072 10.91456394 0.515625 7.74609375 C-2.68123039 6.79795807 -5.68094235 6.28861371 -9 6 C-9 5.67 -9 5.34 -9 5 C-6 4 -3 3 0 2 C0 1.34 0 0.68 0 0 Z " fill="#FB9902" transform="translate(56,21)"/>
<path d="M0 0 C0.80824219 0.80953125 1.61648437 1.6190625 2.44921875 2.453125 C6.34907778 5.70319853 9.88982855 5.7416067 14.8125 5.75 C22.92533985 5.92533985 22.92533985 5.92533985 24 7 C24.0379338 8.92619404 24.0724026 10.85253803 24.08666992 12.77905273 C24.02354409 21.32095474 24.02354409 21.32095474 28.1875 28.4375 C31.73143998 31.17931365 35.44316275 33 40 33 C40.33 32.67 40.66 32.34 41 32 C42.66617115 31.95936168 44.33388095 31.957279 46 32 C46 34.64 46 37.28 46 40 C40.66666667 40 35.33333333 40 30 40 C29.01 36.535 29.01 36.535 28 33 C24.535 32.505 24.535 32.505 21 32 C21.165 31.01 21.33 30.02 21.5 29 C22.39377749 22.05119475 22.07635992 14.99117499 22 8 C20.81921875 8.02320313 19.6384375 8.04640625 18.421875 8.0703125 C16.86458967 8.08907497 15.30729748 8.10727466 13.75 8.125 C12.97269531 8.14175781 12.19539063 8.15851562 11.39453125 8.17578125 C3.83002336 8.24043516 3.83002336 8.24043516 1 6 C0.25 2.875 0.25 2.875 0 0 Z " fill="#EFC372" transform="translate(54,16)"/>
<path d="M0 0 C2.6875 -0.5 2.6875 -0.5 6 0 C7.44055324 1.83842032 8.45749848 3.77782506 9.56640625 5.83203125 C11.62966989 8.95222559 14.31664622 10.67007307 17.42578125 12.67578125 C18.20501953 13.33126953 18.20501953 13.33126953 19 14 C19 14.99 19 15.98 19 17 C19.66 17 20.32 17 21 17 C21 17.99 21 18.98 21 20 C20.01 19.67 19.02 19.34 18 19 C15.43217978 18.77268477 12.88442536 18.58417733 10.3125 18.4375 C7.899375 18.293125 5.48625 18.14875 3 18 C3 12.72 3 7.44 3 2 C2.01 1.67 1.02 1.34 0 1 C0 0.67 0 0.34 0 0 Z " fill="#FB9802" transform="translate(22,57)"/>
<path d="M0 0 C1.32 0.33 2.64 0.66 4 1 C3.67 6.94 3.34 12.88 3 19 C-0.8671875 19.0928125 -0.8671875 19.0928125 -4.8125 19.1875 C-5.62050049 19.21481201 -6.42850098 19.24212402 -7.26098633 19.27026367 C-12.55810248 19.33206668 -12.55810248 19.33206668 -15.01171875 17.48828125 C-15.33785156 16.99714844 -15.66398437 16.50601563 -16 16 C-15.41992188 15.74347656 -14.83984375 15.48695312 -14.2421875 15.22265625 C-7.03187319 11.68888835 -3.54415609 7.08831219 0 0 Z " fill="#FB9A03" transform="translate(72,56)"/>
<path d="M0 0 C5.28 0 10.56 0 16 0 C16.33 1.98 16.66 3.96 17 6 C18.32 6.33 19.64 6.66 21 7 C21.33 9.31 21.66 11.62 22 14 C18.7 14 15.4 14 12 14 C11.61936779 11.6739143 11.28730055 9.33944736 11 7 C11.33 6.67 11.66 6.34 12 6 C11.34 5.67 10.68 5.34 10 5 C10 4.34 10 3.68 10 3 C9.34 3 8.68 3 8 3 C8 5.97 8 8.94 8 12 C8.66 12 9.32 12 10 12 C10 12.66 10 13.32 10 14 C7.69 14 5.38 14 3 14 C3 13.34 3 12.68 3 12 C3.66 12 4.32 12 5 12 C4.67 9.03 4.34 6.06 4 3 C2.02 3.99 2.02 3.99 0 5 C0 3.35 0 1.7 0 0 Z M12 2 C13 4 13 4 13 4 Z " fill="#6A6B6F" transform="translate(1,42)"/>
<path d="M0 0 C5.28 0 10.56 0 16 0 C16 0.33 16 0.66 16 1 C11.05 1 6.1 1 1 1 C1 4.63 1 8.26 1 12 C1.7425 11.484375 2.485 10.96875 3.25 10.4375 C6 9 6 9 8.171875 9.41015625 C8.77515625 9.60480469 9.3784375 9.79945312 10 10 C9.66226563 10.50789063 9.32453125 11.01578125 8.9765625 11.5390625 C6.34589186 15.59911488 4.29585335 19.287806 3 24 C4.32 24.33 5.64 24.66 7 25 C7.33 26.98 7.66 28.96 8 31 C5.125 31.625 5.125 31.625 2 32 C1.34 31.34 0.68 30.68 0 30 C0.375 27.375 0.375 27.375 1 25 C-1.31 24.34 -3.62 23.68 -6 23 C-3.25 17.125 -3.25 17.125 -1 16 C-0.68669533 13.27779617 -0.48735017 10.6677157 -0.375 7.9375 C-0.25125 5.318125 -0.1275 2.69875 0 0 Z " fill="#F89A09" transform="translate(24,24)"/>
<path d="M0 0 C3 1 3 1 4 3 C6.32156597 3.40729228 8.6568787 3.74438677 11 4 C13 9.75 13 9.75 13 12 C6.73 12 0.46 12 -6 12 C-6 10.02 -6 8.04 -6 6 C-6.66 6 -7.32 6 -8 6 C-8 5.34 -8 4.68 -8 4 C-7.34 4 -6.68 4 -6 4 C-6 3.34 -6 2.68 -6 2 C-5.34 2 -4.68 2 -4 2 C-4 2.66 -4 3.32 -4 4 C-2.68 3.67 -1.36 3.34 0 3 C0 2.01 0 1.02 0 0 Z " fill="#877C33" transform="translate(71,44)"/>
<path d="M0 0 C2.45862401 -0.05383848 4.9160755 -0.09359038 7.375 -0.125 C8.42300781 -0.15013672 8.42300781 -0.15013672 9.4921875 -0.17578125 C11.32897486 -0.19344267 13.16601963 -0.10303261 15 0 C15.66 0.66 16.32 1.32 17 2 C11.84080688 7.33709633 7.13396569 9.21650858 0 11 C0 7.37 0 3.74 0 0 Z " fill="#FC9802" transform="translate(25,25)"/>
<path d="M0 0 C1.65 0 3.3 0 5 0 C6.32 2.64 7.64 5.28 9 8 C9.99 5.36 10.98 2.72 12 0 C13.65 0 15.3 0 17 0 C17 0.66 17 1.32 17 2 C16.34 2 15.68 2 15 2 C15 5.3 15 8.6 15 12 C15.66 12 16.32 12 17 12 C17 12.66 17 13.32 17 14 C15.02 14 13.04 14 11 14 C11 13.34 11 12.68 11 12 C11.66 12 12.32 12 13 12 C12.67 10.02 12.34 8.04 12 6 C11.01 8.64 10.02 11.28 9 14 C8.34 14 7.68 14 7 14 C6.34 12.02 5.68 10.04 5 8 C5 9.98 5 11.96 5 14 C3.35 14 1.7 14 0 14 C0 13.34 0 12.68 0 12 C0.66 12 1.32 12 2 12 C2 8.7 2 5.4 2 2 C1.34 2 0.68 2 0 2 C0 1.34 0 0.68 0 0 Z " fill="#473D08" transform="translate(37,42)"/>
<path d="M0 0 C2.64 0 5.28 0 8 0 C7.51789063 0.48082031 7.03578125 0.96164063 6.5390625 1.45703125 C4.32360969 5.11758907 4.47321083 8.48197204 4.375 12.6875 C4.10524639 20.89475361 4.10524639 20.89475361 3 22 C0.18369776 22.21144292 -2.61717799 22.37628157 -5.4375 22.5 C-10.88504143 22.50937661 -10.88504143 22.50937661 -16 24 C-16 23.01 -16 22.02 -16 21 C-12.81175432 19.40587716 -9.37103338 19.89825265 -5.875 19.9375 C-5.12089844 19.94201172 -4.36679688 19.94652344 -3.58984375 19.95117188 C-1.72652873 19.96296501 0.13674555 19.98090058 2 20 C1.87431641 18.19402344 1.87431641 18.19402344 1.74609375 16.3515625 C1.6429359 14.77606084 1.54008734 13.20053891 1.4375 11.625 C1.38142578 10.8309375 1.32535156 10.036875 1.26757812 9.21875 C0.88671875 3.2265625 0.88671875 3.2265625 2 1 C1.34 0.67 0.68 0.34 0 0 Z " fill="#EBB962" transform="translate(74,56)"/>
<path d="M0 0 C0.33 0.99 0.66 1.98 1 3 C2.32 3 3.64 3 5 3 C5 6.3 5 9.6 5 13 C4.34 13 3.68 13 3 13 C3 13.66 3 14.32 3 15 C4.65 15 6.3 15 8 15 C8 15.33 8 15.66 8 16 C7.37351562 15.97679687 6.74703125 15.95359375 6.1015625 15.9296875 C5.28429688 15.91164063 4.46703125 15.89359375 3.625 15.875 C2.40683594 15.84019531 2.40683594 15.84019531 1.1640625 15.8046875 C-1.21342243 15.78629949 -1.21342243 15.78629949 -3 18 C-3 17.34 -3 16.68 -3 16 C-3.99 15.67 -4.98 15.34 -6 15 C-4.68 14.67 -3.36 14.34 -2 14 C-2.18415432 11.05908413 -2.18415432 11.05908413 -3 8 C-4.95163118 6.56362302 -4.95163118 6.56362302 -7 6 C-4.03 6.495 -4.03 6.495 -1 7 C-0.67 4.69 -0.34 2.38 0 0 Z " fill="#F8E84A" transform="translate(34,41)"/>
<path d="M0 0 C1.2065625 0.0309375 1.2065625 0.0309375 2.4375 0.0625 C2.4375 2.7025 2.4375 5.3425 2.4375 8.0625 C-2.22916667 8.0625 -6.89583333 8.0625 -11.5625 8.0625 C-11.94383299 6.0710944 -12.27575582 4.06970923 -12.5625 2.0625 C-11.5625 1.0625 -11.5625 1.0625 -8.625 1 C-7.1090625 1.0309375 -7.1090625 1.0309375 -5.5625 1.0625 C-4.9025 1.0625 -4.2425 1.0625 -3.5625 1.0625 C-2.5625 0.0625 -2.5625 0.0625 0 0 Z " fill="#4D4E51" transform="translate(97.5625,47.9375)"/>
<path d="M0 0 C2.8442585 1.15877198 4.27847757 2.29275847 6.4375 4.5625 C9.1178537 7.11210474 10.39068083 7.69062979 14 8 C14 8.33 14 8.66 14 9 C12.35 9.33 10.7 9.66 9 10 C9 11.65 9 13.3 9 15 C8.01 15.495 8.01 15.495 7 16 C6.34 13.69 5.68 11.38 5 9 C2.69 8.67 0.38 8.34 -2 8 C-1.34 5.36 -0.68 2.72 0 0 Z " fill="#F2A329" transform="translate(77,40)"/>
<path d="M0 0 C0 0.99 0 1.98 0 3 C-5.28 3 -10.56 3 -16 3 C-16 8.28 -16 13.56 -16 19 C-16.99 19 -17.98 19 -19 19 C-18.85980308 16.18711295 -18.71312045 13.37483115 -18.5625 10.5625 C-18.52318359 9.76005859 -18.48386719 8.95761719 -18.44335938 8.13085938 C-18.11328125 2.11328125 -18.11328125 2.11328125 -17 1 C-14.14122091 0.76298761 -11.30116703 0.57780818 -8.4375 0.4375 C-7.22803711 0.37272461 -7.22803711 0.37272461 -5.99414062 0.30664062 C-3.99631195 0.20024738 -1.9981793 0.09959112 0 0 Z " fill="#F0C778" transform="translate(40,21)"/>
<path d="M0 0 C0.99 0 1.98 0 3 0 C3 1.65 3 3.3 3 5 C6.0745356 4.2236068 6.0745356 4.2236068 8 2 C8 2.99 8 3.98 8 5 C8.99 5 9.98 5 11 5 C11.33 3.68 11.66 2.36 12 1 C12.66 2.98 13.32 4.96 14 7 C7.73 7 1.46 7 -5 7 C-5 5.02 -5 3.04 -5 1 C-4.34 1 -3.68 1 -3 1 C-3 2.32 -3 3.64 -3 5 C-1.68 5 -0.36 5 1 5 C0.67 3.35 0.34 1.7 0 0 Z " fill="#2E1E07" transform="translate(70,49)"/>
<path d="M0 0 C0.99 0 1.98 0 3 0 C3.33 1.65 3.66 3.3 4 5 C5.32 5.33 6.64 5.66 8 6 C8.33 8.31 8.66 10.62 9 13 C6.36 13 3.72 13 1 13 C0.67 8.71 0.34 4.42 0 0 Z " fill="#5F3B13" transform="translate(14,43)"/>
<path d="M0 0 C4.62 0 9.24 0 14 0 C14.1941064 3.4580802 14.38058011 6.91627607 14.5625 10.375 C14.61857422 11.35984375 14.67464844 12.3446875 14.73242188 13.359375 C14.78076172 14.30039062 14.82910156 15.24140625 14.87890625 16.2109375 C14.9260376 17.08024902 14.97316895 17.94956055 15.02172852 18.84521484 C15 21 15 21 14 23 C13.34 23 12.68 23 12 23 C9 18.61538462 9 18.61538462 9 16 C9.99 16 10.98 16 12 16 C12.33 11.05 12.66 6.1 13 1 C8.71 1 4.42 1 0 1 C0 0.67 0 0.34 0 0 Z " fill="#F5990E" transform="translate(62,24)"/>
<path d="M0 0 C0.33 0.66 0.66 1.32 1 2 C0.01 3.485 0.01 3.485 -1 5 C1.31 5.66 3.62 6.32 6 7 C5.773125 7.928125 5.54625 8.85625 5.3125 9.8125 C4.63680017 12.96826848 4.63680017 12.96826848 6.4375 14.875 C6.953125 15.24625 7.46875 15.6175 8 16 C6.02 16 4.04 16 2 16 C1.67 16.99 1.34 17.98 1 19 C0.01 17.68 -0.98 16.36 -2 15 C-0.35 15 1.3 15 3 15 C2.34 12.69 1.68 10.38 1 8 C-0.32 8 -1.64 8 -3 8 C-3.36923077 3.44615385 -3.36923077 3.44615385 -1.5 1.1875 C-1.005 0.795625 -0.51 0.40375 0 0 Z " fill="#E2A442" transform="translate(20,41)"/>
<path d="M0 0 C0.33 0 0.66 0 1 0 C1 2.64 1 5.28 1 8 C0.34 8 -0.32 8 -1 8 C-1 8.99 -1 9.98 -1 11 C-0.34 11 0.32 11 1 11 C0.67 11.99 0.34 12.98 0 14 C-0.99 14 -1.98 14 -3 14 C-3 13.01 -3 12.02 -3 11 C-3.639375 10.87625 -4.27875 10.7525 -4.9375 10.625 C-5.618125 10.41875 -6.29875 10.2125 -7 10 C-8.4783226 7.04335481 -8.06032783 4.25770263 -8 1 C-5.87491756 4.18762365 -5.4979837 6.26512223 -5 10 C-4.34 10 -3.68 10 -3 10 C-2.01 6.7 -1.02 3.4 0 0 Z " fill="#EBDC5A" transform="translate(49,46)"/>
<path d="M0 0 C0.66 0 1.32 0 2 0 C2.33 5.28 2.66 10.56 3 16 C7.95 16.33 12.9 16.66 18 17 C18 17.33 18 17.66 18 18 C15.18743719 18.02684312 12.37512759 18.04676188 9.5625 18.0625 C8.76005859 18.07087891 7.95761719 18.07925781 7.13085938 18.08789062 C5.08704779 18.0965143 3.04316098 18.0522815 1 18 C0 17 0 17 -0.09765625 13.18359375 C-0.09098089 11.60153318 -0.07901875 10.01948841 -0.0625 8.4375 C-0.05798828 7.63119141 -0.05347656 6.82488281 -0.04882812 5.99414062 C-0.03700518 3.99606244 -0.01906914 1.99802217 0 0 Z " fill="#F2D58D" transform="translate(22,60)"/>
<path d="M0 0 C1.67542976 0.28604898 3.34385343 0.61781233 5 1 C5.33 2.98 5.66 4.96 6 7 C3.125 7.625 3.125 7.625 0 8 C-0.66 7.34 -1.32 6.68 -2 6 C-1.44444444 1.44444444 -1.44444444 1.44444444 0 0 Z " fill="#362805" transform="translate(26,48)"/>
<path d="M0 0 C2.97 0.495 2.97 0.495 6 1 C6.33 3.31 6.66 5.62 7 8 C4.36 8 1.72 8 -1 8 C-1 6.68 -1 5.36 -1 4 C0.32 4 1.64 4 3 4 C3 3.34 3 2.68 3 2 C1.68 2.33 0.36 2.66 -1 3 C-0.67 2.01 -0.34 1.02 0 0 Z " fill="#373107" transform="translate(56,48)"/>
<path d="M0 0 C2.64 0 5.28 0 8 0 C7.51917969 0.47953125 7.03835937 0.9590625 6.54296875 1.453125 C4.31687822 5.1275833 4.43506856 8.5266376 4.3125 12.75 C4.27833984 13.54277344 4.24417969 14.33554688 4.20898438 15.15234375 C4.12680896 17.10107504 4.06171955 19.05051362 4 21 C3.67 21 3.34 21 3 21 C2.67 17.37 2.34 13.74 2 10 C1.67 10 1.34 10 1 10 C0.875 3.25 0.875 3.25 2 1 C1.34 0.67 0.68 0.34 0 0 Z " fill="#F7C567" transform="translate(74,56)"/>
<path d="M0 0 C1.65 0 3.3 0 5 0 C5 0.66 5 1.32 5 2 C4.34 2 3.68 2 3 2 C3 5.3 3 8.6 3 12 C3.66 12 4.32 12 5 12 C5 12.66 5 13.32 5 14 C3.02 14 1.04 14 -1 14 C-1 13.34 -1 12.68 -1 12 C-0.34 12 0.32 12 1 12 C0.67 8.04 0.34 4.08 0 0 Z " fill="#242204" transform="translate(49,42)"/>
<path d="M0 0 C1.98 0 3.96 0 6 0 C4.68 0.33 3.36 0.66 2 1 C2 4.3 2 7.6 2 11 C2.99 11 3.98 11 5 11 C5 11.66 5 12.32 5 13 C2.69 13 0.38 13 -2 13 C-2 12.34 -2 11.68 -2 11 C-1.34 11 -0.68 11 0 11 C0 7.37 0 3.74 0 0 Z " fill="#27282D" transform="translate(6,43)"/>
<path d="M0 0 C4 2 4 2 5 4 C3.68 4 2.36 4 1 4 C0.67 4.66 0.34 5.32 0 6 C-0.99 6 -1.98 6 -3 6 C-3.66 7.32 -4.32 8.64 -5 10 C-5.99 9.34 -6.98 8.68 -8 8 C-5.36 5.36 -2.72 2.72 0 0 Z " fill="#F2BC61" transform="translate(49,12)"/>
<path d="M0 0 C0.556875 0.474375 1.11375 0.94875 1.6875 1.4375 C4.18346074 3.12395996 6.0446237 3.58953107 9 4 C9 4.33 9 4.66 9 5 C7.35 5.33 5.7 5.66 4 6 C4 7.65 4 9.3 4 11 C3.01 11.495 3.01 11.495 2 12 C1.46809459 10.56656 0.94984742 9.12804633 0.4375 7.6875 C0.14746094 6.88699219 -0.14257812 6.08648437 -0.44140625 5.26171875 C-1 3 -1 3 0 0 Z " fill="#D0A865" transform="translate(82,44)"/>
<path d="M0 0 C2.64 0 5.28 0 8 0 C8 3 8 3 7 6 C5.35 5.67 3.7 5.34 2 5 C2 4.01 2 3.02 2 2 C1.34 2 0.68 2 0 2 C0 1.34 0 0.68 0 0 Z " fill="#734712" transform="translate(74,48)"/>
<path d="M0 0 C1.98 0 3.96 0 6 0 C6 1.32 6 2.64 6 4 C4.68 4 3.36 4 2 4 C2 4.66 2 5.32 2 6 C1.01 5.67 0.02 5.34 -1 5 C-0.67 3.35 -0.34 1.7 0 0 Z " fill="#3B3533" transform="translate(86,49)"/>
<path d="M0 0 C0.66 0 1.32 0 2 0 C2.96070434 2.88211302 3.10581883 4.69850044 3.0625 7.6875 C3.05347656 8.49574219 3.04445313 9.30398437 3.03515625 10.13671875 C3.02355469 10.75160156 3.01195312 11.36648437 3 12 C1.35 12 -0.3 12 -2 12 C-2 11.34 -2 10.68 -2 10 C-1.34 10 -0.68 10 0 10 C0 6.7 0 3.4 0 0 Z " fill="#594D09" transform="translate(39,44)"/>
<path d="M0 0 C0.66 0.33 1.32 0.66 2 1 C2.625 3.5625 2.625 3.5625 3 6 C0.36 6 -2.28 6 -5 6 C-5 4.35 -5 2.7 -5 1 C-4.34 1 -3.68 1 -3 1 C-3 1.99 -3 2.98 -3 4 C-2.01 4 -1.02 4 0 4 C0 2.68 0 1.36 0 0 Z " fill="#2D1607" transform="translate(20,50)"/>
<path d="M0 0 C2.60444348 -0.05394705 5.20776998 -0.09364469 7.8125 -0.125 C8.55048828 -0.14175781 9.28847656 -0.15851563 10.04882812 -0.17578125 C13.91246426 -0.21074628 15.70903668 -0.19397555 19 2 C18.67 3.32 18.34 4.64 18 6 C16.5 4.625 16.5 4.625 15 3 C15 2.34 15 1.68 15 1 C10.05 1 5.1 1 0 1 C0 0.67 0 0.34 0 0 Z " fill="#E8A947" transform="translate(25,76)"/>
<path d="M0 0 C-1.32 1.65 -2.64 3.3 -4 5 C-7.875 3.25 -7.875 3.25 -9 1 C-5.64919071 -1.10976881 -3.77897651 -1.0497157 0 0 Z " fill="#F1BB5B" transform="translate(55,83)"/>
<path d="M0 0 C0.33 0 0.66 0 1 0 C1.66 1.98 2.32 3.96 3 6 C4.32 6 5.64 6 7 6 C7 6.66 7 7.32 7 8 C5.68 8 4.36 8 3 8 C2.67 8.99 2.34 9.98 2 11 C1.34 10.67 0.68 10.34 0 10 C0 6.7 0 3.4 0 0 Z " fill="#D7CE5B" transform="translate(52,44)"/>
<path d="M0 0 C1.21236328 0.01353516 1.21236328 0.01353516 2.44921875 0.02734375 C3.37154297 0.04474609 3.37154297 0.04474609 4.3125 0.0625 C3.69890625 0.34867188 3.0853125 0.63484375 2.453125 0.9296875 C-0.08101266 2.27074575 -1.74109133 3.97706214 -3.6875 6.0625 C-3.6875 4.7425 -3.6875 3.4225 -3.6875 2.0625 C-5.0075 1.7325 -6.3275 1.4025 -7.6875 1.0625 C-4.80538698 0.10179566 -2.98899956 -0.04331883 0 0 Z " fill="#FEDE34" transform="translate(49.6875,26.9375)"/>
<path d="M0 0 C0.99 0.33 1.98 0.66 3 1 C3.33 1.99 3.66 2.98 4 4 C3.67 4.66 3.34 5.32 3 6 C3.66 6 4.32 6 5 6 C5 7.32 5 8.64 5 10 C4.01 10 3.02 10 2 10 C2 7.69 2 5.38 2 3 C1.34 3 0.68 3 0 3 C0 2.01 0 1.02 0 0 Z " fill="#B17825" transform="translate(71,44)"/>
<path d="M0 0 C0.33 0 0.66 0 1 0 C1.33 2.31 1.66 4.62 2 7 C-0.64 7 -3.28 7 -6 7 C-5.34 6.67 -4.68 6.34 -4 6 C-4 5.34 -4 4.68 -4 4 C-2.68 4.33 -1.36 4.66 0 5 C0 3.35 0 1.7 0 0 Z " fill="#565022" transform="translate(61,49)"/>
<path d="M0 0 C0.33 0 0.66 0 1 0 C1 2.64 1 5.28 1 8 C0.34 8 -0.32 8 -1 8 C-1 8.66 -1 9.32 -1 10 C-1.66 10 -2.32 10 -3 10 C-2.01 6.7 -1.02 3.4 0 0 Z " fill="#DACE5D" transform="translate(49,46)"/>
<path d="M0 0 C0.33 0 0.66 0 1 0 C1 3.96 1 7.92 1 12 C0.34 12 -0.32 12 -1 12 C-1.92470553 7.28400182 -2.22923777 4.32734391 0 0 Z " fill="#B8AD9B" transform="translate(14,44)"/>
<path d="M0 0 C2.31 0 4.62 0 7 0 C5.37660195 1.70884005 3.70680947 3.37446717 2 5 C1.34 5 0.68 5 0 5 C0 3.35 0 1.7 0 0 Z " fill="#64656A" transform="translate(1,42)"/>
<path d="M0 0 C3.63 0 7.26 0 11 0 C7 3 7 3 3.25 2.6875 C2.1775 2.460625 1.105 2.23375 0 2 C0 1.34 0 0.68 0 0 Z " fill="#F39B00" transform="translate(45,73)"/>
<path d="M0 0 C0.66 0.33 1.32 0.66 2 1 C1.34 2.65 0.68 4.3 0 6 C-1.98 6 -3.96 6 -6 6 C-2.25 3 -2.25 3 0 3 C0 2.01 0 1.02 0 0 Z " fill="#84878D" transform="translate(92,50)"/>
<path d="M0 0 C0.66 0 1.32 0 2 0 C2 0.66 2 1.32 2 2 C2.99 1.67 3.98 1.34 5 1 C4.67 2.32 4.34 3.64 4 5 C2.35 4.67 0.7 4.34 -1 4 C-0.67 2.68 -0.34 1.36 0 0 Z " fill="#8C7D3C" transform="translate(27,50)"/>
<path d="M0 0 C1.65 0 3.3 0 5 0 C5 0.66 5 1.32 5 2 C4.34 2 3.68 2 3 2 C3 3.32 3 4.64 3 6 C2.34 6 1.68 6 1 6 C0.67 4.02 0.34 2.04 0 0 Z " fill="#362705" transform="translate(49,42)"/>
</svg>
